<?xml version="1.0" encoding="utf-8"?>
<!-- Generator: Adobe Illustrator 25.4.1, SVG Export Plug-In . SVG Version: 6.00 Build 0)  -->
<svg version="1.1" id="Capa_1" xmlns="http://www.w3.org/2000/svg" xmlns:xlink="http://www.w3.org/1999/xlink" x="0px" y="0px"
	 viewBox="0 0 1080 1080" style="enable-background:new 0 0 1080 1080;" xml:space="preserve">
<style type="text/css">
	.st0{fill:#FFFFFF;}
</style>
<g>
	<path class="st0" d="M911.9,519.8c-30.9,0.6-62,0.1-92.9,0.3c-10.6,0-16.1-5.3-16.1-15.8c0.1-76,0.3-152,0.4-228
		c0-6.2-0.9-7.2-7.2-7.3c-27.6-0.1-55.3-0.2-82.9-0.2c-9.2,0-16.6,7.4-16.6,16.6c0.1,78.2,0.2,156.3,0.3,234.5
		C521,520,345.1,519.7,169.1,520c-4,0-5.5-0.9-5.4-5.2c0.4-106.8,0.1-213.6,0.9-320.5c0.1-10.1,0.6-10.7,10.9-10.6
		c75,0.1,150,0.3,225,0.4c166.8,0.5,333.6-0.1,500.4-0.2c8.9,0.1,10,1.2,10,10.1C911.3,302.8,911.8,411.2,911.9,519.8z M428,441.3
		c0-0.1,0-0.2,0-0.3c57.3,0,114.6,0,171.9,0c6.9,0,6.9,0,6.9-6.8c-0.3-53.8,0.6-107.7-0.2-161.4c-0.4-1.7-2.5-3.5-4.3-4.3
		c-110.6-0.6-221.7,0-332.4-0.3c-8.2,1.4-22.6-6.3-21,7.4c-0.1,53-0.1,106-0.2,158.9c0,6.7,0,6.7,6.9,6.7
		C313.1,441.3,370.5,441.3,428,441.3z"/>
	<path class="st0" d="M747.3,675.7c21.6-30.5,42-59.7,63.6-89.9c1.3-1.8,4.1-3.6,6.3-3.6c32.5,0.1,64.9-0.5,97.4,0.3
		c0.9,23.6,0.2,47.3,0.7,70.9c0.1,4.2-1.3,5.6-5.4,5.6c-11.5-0.2-23-0.3-34.5,0c-2.2,0-5,1.2-6.3,2.8c-14.2,17-28.2,34.2-42.3,51.2
		c-2.7,3.3-2.1,6,0.2,9.4c26.1,37.9,54.8,73.8,84.7,108.8c3.7,4.3,5.4,8.9,5.3,14.6c-0.2,13.8,0,27.7-0.1,41.5
		c0,6.8-1.5,8.3-8.2,8.3c-30.2,0-60.3-0.2-90.5-0.1c-5.5,0-9.5-2-12.7-6.5c-29-40.3-58-80.5-86.7-121c-3.1-4.3-4.6-4.3-7.8,0.2
		c-27.7,39.4-55.6,78.6-83,118.2c-4.7,6.9-10.3,9.7-18.8,9.7c-145.5-0.7-291-0.5-436.4-0.2c-8.4-0.1-9.9-1.5-9.9-10
		c0-19.2,0-38.3,0.1-57.5c0-7.4,0.9-8.2,8.4-8.2c114.8,0.2,229.6,0.3,344.5,0.9c10,0,16.5-2.6,22.3-11.2
		c34.2-51.6,73.2-99.6,109.2-150c-98.7-1.6-197.4-0.1-296.2-0.6c-8.4,0-8.4,0-8.5-8.5c-0.1-21.2,0-42.3-0.3-63.5
		c-0.1-4.6,1.4-6.1,5.9-6c107.8,0.9,215.6,0.1,323.5,0.4c2.4,0,5.8,1.2,7.2,3C701.9,615.1,725.4,644.3,747.3,675.7z"/>
	<path class="st0" d="M249,582.1c0.1,24.2-0.1,47.7,0.1,71.8c0.1,4.1-1.2,5.6-5.4,5.6c-24.8-0.2-49.6-0.2-74.5-0.1
		c-3.8,0-5.3-1.2-5.3-5.2c0-22.8-0.1-45.6-0.3-68.5c0-2.6,0.6-4,3.6-4C194.5,582.1,221.7,580.8,249,582.1z"/>
</g>
</svg>
