<?xml version="1.0" encoding="utf-8"?>
<!-- Generator: Adobe Illustrator 25.4.1, SVG Export Plug-In . SVG Version: 6.00 Build 0)  -->
<svg version="1.1" id="Capa_1" xmlns="http://www.w3.org/2000/svg" xmlns:xlink="http://www.w3.org/1999/xlink" x="0px" y="0px"
	 viewBox="0 0 2100 2100" style="enable-background:new 0 0 2100 2100;" xml:space="preserve">
<style type="text/css">
	.st0{fill:none;}
	.st1{stroke:#000000;stroke-miterlimit:10;}
	.st2{clip-path:url(#SVGID_00000076572437396614063760000014729405007296413315_);fill:#231F20;}
	.st3{clip-path:url(#SVGID_00000076572437396614063760000014729405007296413315_);}
	.st4{clip-path:url(#SVGID_00000023960590124126198870000004396181747173427843_);fill:#FFFFFF;}
	
		.st5{clip-path:url(#SVGID_00000023960590124126198870000004396181747173427843_);fill:none;stroke:#231F20;stroke-width:18;stroke-miterlimit:10;}
	.st6{fill:#FFFFFF;}
</style>
<g>
	<polygon class="st0" points="805.5,909.1 805.5,1191.4 1050,1332.5 1294.5,1191.4 1294.5,909.1 1050,767.9 	"/>
	<polyline class="st0" points="1294.1,1191.1 805.5,908.9 805.5,1191.1 1294.1,908.9 	"/>
	<line class="st0" x1="1050" y1="1332.5" x2="1050" y2="767.9"/>
	<path class="st0" d="M805.5,1191.1"/>
</g>
<path class="st1" d="M3063.9,254.2c0,0,0,282.4,0,282.4s71.4,39.6,71.4,39.6s1.1-122,1.1-122l63.7,44
	c18.5,87.8-0.7,151.8,106.6,181.3c0.8-3-57.7-202.2-53.9-206.6c3.8-4.4,56-79.1,56-79.1S3063.9,254.2,3063.9,254.2z"/>
<path class="st1" d="M3551.8,254.2c38.1,87.9-132.9,234.5-170.3,294.5c4.4,0.5,170.3-95.6,170.3-95.6l1.1,79.1
	c0,0-246.2,147.3-246.2,147.3c3.7-100.8-17.2-175.7,75.8-246.1c-90.1,65-70.7,48.7-73.6-39.6
	C3308.9,393.7,3551.8,254.2,3551.8,254.2z"/>
<path class="st1" d="M3063.9,254.2c127.9-104.4,224.4,34.1,191.2-114.3c0,0,53.8-29.7,53.8-29.7c73.4,48.4,98.1,26.7,52.7,120.9
	c69.7-8.8,129.5-31.6,190.1,23.1c-65.5,53.2-134.7,39.6-209.9,29.6c0,0,3.3,87.9,3.3,87.9s-36.3,22-36.3,22l-64.8-33
	c0,0,23.1-85.7,19.8-85.7C3214.5,277.5,3099.4,297.9,3063.9,254.2z"/>
<g>
	<g>
		<defs>
			<rect id="SVGID_1_" x="-2014.6" y="826.1" width="1000" height="1000"/>
		</defs>
		<clipPath id="SVGID_00000048497489040533877840000011256443248117686184_">
			<use xlink:href="#SVGID_1_"  style="overflow:visible;"/>
		</clipPath>
		
			<rect x="-2014.6" y="826.1" style="clip-path:url(#SVGID_00000048497489040533877840000011256443248117686184_);fill:#231F20;" width="1000" height="1000"/>
		<g style="clip-path:url(#SVGID_00000048497489040533877840000011256443248117686184_);">
			<defs>
				<rect id="SVGID_00000028309874794039846210000006074414548020550065_" x="-2014.6" y="826.1" width="1000" height="1000"/>
			</defs>
			<clipPath id="SVGID_00000050638734115232744520000011006555496865442184_">
				<use xlink:href="#SVGID_00000028309874794039846210000006074414548020550065_"  style="overflow:visible;"/>
			</clipPath>
			<path style="clip-path:url(#SVGID_00000050638734115232744520000011006555496865442184_);fill:#FFFFFF;" d="M-1815.4,1222.5
				c-0.6,94.5-1.3,189-1.9,283.5c36.1,31.1,72.3,62.1,108.4,93.2c-12.9-120.8-12.1-182.9,2.4-186.3c16.5-3.8,50.5,67.8,102.3,214.8
				l89.4,30.4c-23.5-78-46.9-156-70.4-234c29.2-27.3,58.3-54.5,87.5-81.8c-10.8-18.4-21.6-36.8-32.3-55.2
				c-90.7-41.9-181.4-83.7-272.1-125.6C-1806.5,1182-1810.9,1202.2-1815.4,1222.5"/>
			
				<path style="clip-path:url(#SVGID_00000050638734115232744520000011006555496865442184_);fill:none;stroke:#231F20;stroke-width:18;stroke-miterlimit:10;" d="
				M-1815.4,1222.5c-0.6,94.5-1.3,189-1.9,283.5c36.1,31.1,72.3,62.1,108.4,93.2c-12.9-120.8-12.1-182.9,2.4-186.3
				c16.5-3.8,50.5,67.8,102.3,214.8l89.4,30.4c-23.5-78-46.9-156-70.4-234c29.2-27.3,58.3-54.5,87.5-81.8
				c-10.8-18.4-21.6-36.8-32.3-55.2c-90.7-41.9-181.4-83.7-272.1-125.6C-1806.5,1182-1810.9,1202.2-1815.4,1222.5z"/>
			<path style="clip-path:url(#SVGID_00000050638734115232744520000011006555496865442184_);fill:#FFFFFF;" d="M-1522.5,1298.1
				l327.2-165.5c3.8,23.8,6.2,57.3-1.9,95.1c-31.2,146.2-189.2,224.3-174.9,248.7c3.4,5.7,16.3,8.6,57.3-3.1
				c43.6-16.5,87.3-33.1,130.9-49.6l-5.7,100.8l-332.9,119.9l9.5-118l146.5-213.1l-144.6,127.5L-1522.5,1298.1z"/>
			
				<path style="clip-path:url(#SVGID_00000050638734115232744520000011006555496865442184_);fill:none;stroke:#231F20;stroke-width:18;stroke-miterlimit:10;" d="
				M-1522.5,1298.1l327.2-165.5c3.8,23.8,6.2,57.3-1.9,95.1c-31.2,146.2-189.2,224.3-174.9,248.7c3.4,5.7,16.3,8.6,57.3-3.1
				c43.6-16.5,87.3-33.1,130.9-49.6l-5.7,100.8l-332.9,119.9l9.5-118l146.5-213.1l-144.6,127.5L-1522.5,1298.1z"/>
			<path style="clip-path:url(#SVGID_00000050638734115232744520000011006555496865442184_);fill:#FFFFFF;" d="M-1858.1,1134.9
				c98.3-9.8,196.5-19.7,294.8-29.5c1.7-37.1,3.4-74.2,5.1-111.4l80.2,28.7c4.7,24.7,9.4,49.4,14.1,74.2
				c47.4-3.6,94.8-7.1,142.2-10.7c78.2,22.5,151.4,44.5,150.5,48.3c-0.2,0.8-3.5,0.5-4.4,0.5c-17.4-1.1-87.1,8.5-256.5,39.1
				c-13.3,30.1-26.6,60.1-39.9,90.2l-50.6,28.5l-52-32.5c-0.3-27.2-0.6-54.5-1-81.7c-58.8-3-117.6-6-176.4-9
				C-1787.3,1157.9-1822.7,1146.4-1858.1,1134.9"/>
			
				<path style="clip-path:url(#SVGID_00000050638734115232744520000011006555496865442184_);fill:none;stroke:#231F20;stroke-width:18;stroke-miterlimit:10;" d="
				M-1858.1,1134.9c98.3-9.8,196.5-19.7,294.8-29.5c1.7-37.1,3.4-74.2,5.1-111.4l80.2,28.7c4.7,24.7,9.4,49.4,14.1,74.2
				c47.4-3.6,94.8-7.1,142.2-10.7c78.2,22.5,151.4,44.5,150.5,48.3c-0.2,0.8-3.5,0.5-4.4,0.5c-17.4-1.1-87.1,8.5-256.5,39.1
				c-13.3,30.1-26.6,60.1-39.9,90.2l-50.6,28.5l-52-32.5c-0.3-27.2-0.6-54.5-1-81.7c-58.8-3-117.6-6-176.4-9
				C-1787.3,1157.9-1822.7,1146.4-1858.1,1134.9z"/>
		</g>
	</g>
</g>
<g>
	<path class="st6" d="M530.6,1349.9c73.6,42.5,147.2,85,220.8,127.5c-22.2-189.7-23.3-286.8-3.2-291.4
		c24-5.5,78.3,121.7,162.8,381.4c46.6,27.4,93.2,54.8,139.8,82.2c2.5-35.1,4.9-70.2,7.4-105.3c-39.7-113.6-79.5-227.1-119.2-340.7
		c45.9-42.9,91.8-85.8,137.7-128.7c-17-28.9-33.9-57.9-50.9-86.8c-164.7-78.3-329.3-156.7-494-235
		C531.4,952.1,531,1151,530.6,1349.9z"/>
	<g>
		<path class="st6" d="M1050,1049.3c173-100.1,346-200.1,519-300.2c-2.4,61.8-4.8,123.7-7.2,185.5
			c-253.4,261.8-287.9,342.9-269.4,367c12.5,16.2,50.7,8.7,95.2,0c95.2-18.6,156.9-72.8,182.9-98.6c0,48.6,0.1,97.2,0.1,145.7
			c-173.4,100.6-346.8,201.2-520.2,301.9c1-83.1,1.9-166.1,2.9-249.2c76.6-124,153.2-248,229.9-372
			c-77.4,67.2-154.9,134.5-232.3,201.7C1050.5,1170.5,1050.2,1109.9,1050,1049.3z"/>
	</g>
	<path class="st6" d="M529.3,751.6c140.8-15.4,281.6-30.7,422.3-46.1c-2.9-64.6-5.8-129.1-8.6-193.7c36.2-20.4,72.4-40.8,108.6-61.3
		c23.7,13.6,47.4,27.1,71.1,40.7c9.2,64.8,18.4,129.7,27.6,194.5c82.1-11.7,164.2-23.3,246.3-35c57.8,32.1,115.7,64.2,173.5,96.2
		c-135.4,20.7-270.9,41.4-406.3,62.1c7,53.9,14,107.7,21,161.6c-41.7,24.8-83.3,49.6-125,74.4c-33.2-26.9-66.3-53.7-99.5-80.6
		c-2-49.2-4-98.3-6-147.5c-79.4,9.3-158.8,18.5-238.3,27.8c-36.7-17.4-73.5-34.8-110.2-52.2"/>
</g>
</svg>
